<svg width="100" height="100" viewBox="0 0 100 100" fill="none" xmlns="http://www.w3.org/2000/svg">
<g clip-path="url(#clip0_12_19)">
<rect width="100" height="100" rx="20" fill="url(#paint0_linear_12_19)"/>
<circle cx="70.1353" cy="13.7452" r="7.5" transform="rotate(30 70.1353 13.7452)" fill="white"/>
<path fill-rule="evenodd" clip-rule="evenodd" d="M44.6423 22.1176C46.9239 21.5062 49.3549 21.8263 51.4005 23.0073L71.698 34.7261C73.7436 35.9071 75.2363 37.8524 75.8477 40.134C76.459 42.4156 76.139 44.8466 74.9579 46.8922L49.1767 91.5466C47.9956 93.5923 46.0503 95.0849 43.7687 95.6963C41.4871 96.3077 39.0561 95.9876 37.0105 94.8066L16.713 83.0878C14.6674 81.9068 13.1747 79.9615 12.5634 77.6799C11.952 75.3983 12.2721 72.9673 13.4531 70.9216L39.2344 26.2672C40.4154 24.2216 42.3607 22.7289 44.6423 22.1176ZM49.5255 26.2549C48.3412 25.5711 46.9338 25.3858 45.6129 25.7398C44.292 26.0937 43.1657 26.9579 42.482 28.1422L16.7007 72.7966C16.017 73.981 15.8317 75.3884 16.1856 76.7093C16.5395 78.0302 17.4037 79.1565 18.588 79.8402L38.8855 91.559C40.0698 92.2427 41.4772 92.428 42.7982 92.0741C44.1191 91.7201 45.2453 90.856 45.9291 89.6716L71.7103 45.0172C72.3941 43.8329 72.5794 42.4255 72.2254 41.1046C71.8715 39.7836 71.0073 38.6574 69.823 37.9736L49.5255 26.2549ZM25.6316 77.9529C26.1494 77.0561 27.2961 76.7488 28.1929 77.2666L36.3119 81.9541C37.2087 82.4719 37.516 83.6186 36.9982 84.5154C36.4804 85.4122 35.3337 85.7195 34.4369 85.2017L26.3179 80.5142C25.4211 79.9964 25.1138 78.8497 25.6316 77.9529Z" fill="white"/>
</g>
<defs>
<linearGradient id="paint0_linear_12_19" x1="50" y1="0" x2="50" y2="100" gradientUnits="userSpaceOnUse">
<stop stop-color="#68D391"/>
<stop offset="1" stop-color="#38A169"/>
</linearGradient>
<clipPath id="clip0_12_19">
<rect width="100" height="100" rx="20" fill="white"/>
</clipPath>
</defs>
</svg>
