<svg width="500" height="500" viewBox="0 0 500 500" fill="none" xmlns="http://www.w3.org/2000/svg">
<rect width="500" height="500" rx="100" fill="url(#paint0_linear_629_2350)"/>
<path d="M250 399.583C229.445 399.583 210 395.694 191.667 387.917C173.333 380.139 157.361 369.444 143.75 355.833C130.139 342.222 119.514 326.319 111.875 308.125C104.236 289.931 100.417 270.417 100.417 249.583C100.417 228.75 104.236 209.306 111.875 191.25C119.514 173.194 130.139 157.431 143.75 143.958C157.361 130.486 173.333 119.861 191.667 112.083C210 104.306 229.445 100.417 250 100.417C270.833 100.417 290.278 104.306 308.333 112.083C326.389 119.861 342.292 130.486 356.042 143.958C369.792 157.431 380.486 173.194 388.125 191.25C395.764 209.306 399.583 228.75 399.583 249.583C399.583 270.417 395.764 289.931 388.125 308.125C380.486 326.319 369.792 342.222 356.042 355.833C342.292 369.444 326.389 380.139 308.333 387.917C290.278 395.694 270.833 399.583 250 399.583V399.583ZM250 387.917C261.111 375.694 270.07 362.917 276.875 349.583C283.681 336.25 289.306 320.833 293.75 303.333H206.667C210.833 321.667 216.389 337.431 223.333 350.625C230.278 363.819 239.167 376.25 250 387.917V387.917ZM232.917 386.25C224.028 376.528 216.111 364.306 209.167 349.583C202.222 334.861 196.945 319.444 193.333 303.333H123.333C133.889 326.944 148.333 345.556 166.667 359.167C185 372.778 207.083 381.806 232.917 386.25ZM267.5 385.833C291.389 382.778 312.917 373.958 332.083 359.375C351.25 344.792 366.25 326.111 377.083 303.333H307.083C302.361 319.722 296.528 335.139 289.583 349.583C282.639 364.028 275.278 376.111 267.5 385.833ZM119.583 290.833H190.833C189.722 283.056 188.958 275.764 188.542 268.958C188.125 262.153 187.917 255.694 187.917 249.583C187.917 243.194 188.125 236.667 188.542 230C188.958 223.333 189.861 216.389 191.25 209.167H119.583C117.361 215.556 115.695 222.083 114.583 228.75C113.472 235.417 112.917 242.361 112.917 249.583C112.917 256.806 113.472 263.819 114.583 270.625C115.695 277.431 117.361 284.167 119.583 290.833ZM204.167 290.833H296.667C297.778 282.778 298.542 275.556 298.958 269.167C299.375 262.778 299.583 256.25 299.583 249.583C299.583 243.194 299.375 236.875 298.958 230.625C298.542 224.375 297.778 217.222 296.667 209.167H204.167C202.778 217.222 201.806 224.375 201.25 230.625C200.695 236.875 200.417 243.194 200.417 249.583C200.417 256.25 200.695 262.778 201.25 269.167C201.806 275.556 202.778 282.778 204.167 290.833V290.833ZM308.75 290.833H380.833C382.778 284.167 384.306 277.431 385.417 270.625C386.528 263.819 387.083 256.806 387.083 249.583C387.083 242.361 386.528 235.417 385.417 228.75C384.306 222.083 382.778 215.556 380.833 209.167H309.167C310.278 217.778 311.111 225.278 311.667 231.667C312.222 238.056 312.5 244.028 312.5 249.583C312.5 255.694 312.222 262.083 311.667 268.75C311.111 275.417 310.139 282.778 308.75 290.833V290.833ZM307.083 196.25H377.083C366.528 172.917 351.875 154.097 333.125 139.792C314.375 125.486 292.361 116.806 267.083 113.75C275.972 124.306 283.82 136.736 290.625 151.042C297.431 165.347 302.917 180.417 307.083 196.25V196.25ZM206.667 196.25H294.167C290 179.583 284.236 164.167 276.875 150C269.514 135.833 260.556 123.194 250 112.083C240 122.083 231.528 133.75 224.583 147.083C217.639 160.417 211.667 176.806 206.667 196.25V196.25ZM123.333 196.25H193.75C197.361 180.417 202.57 165.486 209.375 151.458C216.181 137.431 223.889 124.861 232.5 113.75C207.222 117.361 185.278 126.111 166.667 140C148.056 153.889 133.611 172.639 123.333 196.25V196.25Z" fill="white"/>
<defs>
<linearGradient id="paint0_linear_629_2350" x1="250" y1="0" x2="250" y2="500" gradientUnits="userSpaceOnUse">
<stop stop-color="#39AFFB"/>
<stop offset="0.0001" stop-color="#39AFFB"/>
<stop offset="1" stop-color="#5E85FD"/>
<stop offset="1" stop-color="#39AFFB"/>
</linearGradient>
</defs>
</svg>
